# xmcd
#
# Track frame offsets:
#	150
#	17825
#	35525
#	60337
#	81287
#	101012
#	115287
#	135050
#	156200
#	168887
#	188925
#	206750
#	231425
#	248462
#	268550
#	293200
#
# Disc length: 4269 seconds
#
# Revision: 1
# Processed by: cddbd v1.5.2PL0 Copyright (c) Steve Scherf et al.
# Submitted via: audiograbber 1.83.01
#
DISCID=d410ab10
DTITLE=Various Artist - Love 2000
DYEAR=1999
DGENRE=Pop
TTITLE0=Art Garfunkel - Bright Eyes
TTITLE1=Bangles - Eternal Flame
TTITLE2=Cheap Trick - The Flame
TTITLE3=Meat Loaf - Heaven Can Wait
TTITLE4=Terence Trent D'Arby - Sign Your Name
TTITLE5=Johnny Logan - What's Another Year
TTITLE6=Paul Young - Everytime You Go Away
TTITLE7=Billy Paul - Me And Mrs. Jones
TTITLE8=Bobby Vinton - Blue Velvet
TTITLE9=Earth Wind And Fire - After The Love Has Gone
TTITLE10=Marvin Gaye - Sexual Healing
TTITLE11=The Jacksons - Show You The Way To Go
TTITLE12=Cyndi Lauper - True Colors
TTITLE13=Don Johnson - Tell It Like It Is
TTITLE14=The Chimes - I Still Haven't Found
TTITLE15=Jennifer Rush - The Power Of Love
EXTD=
EXTT0=
EXTT1=
EXTT2=
EXTT3=
EXTT4=
EXTT5=
EXTT6=
EXTT7=
EXTT8=
EXTT9=
EXTT10=
EXTT11=
EXTT12=
EXTT13=
EXTT14=
EXTT15=
PLAYORDER=
